<?xml version="1.0" encoding="UTF-8" standalone="no"?>
<!-- Created with Inkscape (http://www.inkscape.org/) -->

<svg
   xmlns:dc="http://purl.org/dc/elements/1.1/"
   xmlns:cc="http://creativecommons.org/ns#"
   xmlns:rdf="http://www.w3.org/1999/02/22-rdf-syntax-ns#"
   xmlns:svg="http://www.w3.org/2000/svg"
   xmlns="http://www.w3.org/2000/svg"
   xmlns:sodipodi="http://sodipodi.sourceforge.net/DTD/sodipodi-0.dtd"
   xmlns:inkscape="http://www.inkscape.org/namespaces/inkscape"
   width="744.09448819"
   height="1052.3622047"
   id="svg2"
   version="1.1"
   inkscape:version="0.48.4 r9939"
   sodipodi:docname="New document 1">
  <defs
     id="defs4" />
  <sodipodi:namedview
     id="base"
     pagecolor="#ffffff"
     bordercolor="#666666"
     borderopacity="1.0"
     inkscape:pageopacity="0.0"
     inkscape:pageshadow="2"
     inkscape:zoom="2.8"
     inkscape:cx="221.60765"
     inkscape:cy="592.70571"
     inkscape:document-units="px"
     inkscape:current-layer="g3093"
     showgrid="false"
     inkscape:window-width="1247"
     inkscape:window-height="1388"
     inkscape:window-x="65"
     inkscape:window-y="24"
     inkscape:window-maximized="0" />
  <metadata
     id="metadata7">
    <rdf:RDF>
      <cc:Work
         rdf:about="">
        <dc:format>image/svg+xml</dc:format>
        <dc:type
           rdf:resource="http://purl.org/dc/dcmitype/StillImage" />
        <dc:title></dc:title>
      </cc:Work>
    </rdf:RDF>
  </metadata>
  <g
     inkscape:label="Layer 1"
     inkscape:groupmode="layer"
     id="layer1">
    <g
       id="g3093"
       transform="translate(-256.42857,-211.42857)">
      <path
         style="fill:#f3f3f3"
         d="m 463.29962,700.18152 c 0,-0.40256 -1.02469,-1.1988 -2.2771,-1.76944 -4.46332,-2.03362 -8.69296,-6.45906 -9.65935,-10.10651 -1.17995,-4.45349 -1.93031,-180.11108 -0.77699,-181.89066 1.33671,-2.06255 150.04708,-2.19211 152.21344,-0.13262 0.65586,0.6235 0.9084,31.24514 0.73382,88.97942 -0.29783,98.497 0.34696,90.56757 -7.95774,97.86137 -3.02324,2.65523 -4.30377,4.37859 -3.48913,4.69575 -25.87466,15.86047 -115.4466,11.17252 -128.78695,2.36269 z"
         id="path3117"
         inkscape:connector-curvature="0"
         sodipodi:nodetypes="csssssscc"
         inkscape:export-filename="/home/pascal/Desktop/sonos_traced.png"
         inkscape:export-xdpi="351.61841"
         inkscape:export-ydpi="351.61841" />
      <path
         style="fill:#eaeaea"
         d="m 466.29962,700.80793 c 0,-0.6735 -1.52832,-2.04761 -3.39627,-3.05356 -1.86795,-1.00596 -5.13045,-3.60453 -7.25,-5.77461 l -3.85373,-3.94559 -0.76323,-77.2028 c -0.41978,-42.46154 -0.51022,-79.0785 -0.20099,-81.37103 0.81301,-6.02737 1.66036,-6.40044 12.01707,-5.29085 9.02529,0.96694 70.00791,0.34858 71.74909,-0.72753 0.52665,-0.32548 0.6608,-3.44874 0.30902,-7.19429 -0.34192,-3.64051 -0.2026,-7.26672 0.3096,-8.05825 1.29881,-2.00711 10.61642,-2.85667 22.84328,-2.0828 11.44993,0.7247 13.33184,1.61956 10.85189,5.16019 -1.92199,2.74402 -2.05125,6.01536 -0.41632,10.53666 1.3481,3.72812 3.76653,4.94888 6.69708,3.3805 1.08461,-0.58047 2.90161,-1.0554 4.03777,-1.0554 2.47926,0 2.59927,-1.48155 0.44553,-5.5 -0.88434,-1.65 -1.66907,-3.89593 -1.74384,-4.99096 -0.083,-1.21577 -1.47897,-2.62496 -3.58534,-3.61932 -3.39091,-1.60078 -3.40866,-1.6413 -1.04677,-2.39094 1.32144,-0.41941 7.96926,-0.82193 14.77294,-0.89451 9.58971,-0.10229 12.63477,0.18723 13.54677,1.28797 0.88521,1.06841 1.1302,22.92052 0.98961,88.27077 -0.18543,86.19552 -0.20252,86.87288 -2.26561,89.77021 -1.14332,1.60564 -4.32174,4.56585 -7.06316,6.57824 -2.74141,2.01238 -4.98439,4.06491 -4.98439,4.56116 -8.93061,7.47871 -110.06161,8.3815 -122,3.60674 z m 21.54815,-180.63722 c -1.27811,-2.21411 -1.49804,-6.95974 -0.3567,-7.69694 0.7197,-0.46486 6.25855,-0.91601 12.30855,-1.00255 6.05,-0.0865 13.37081,-0.33297 16.26847,-0.5476 2.89767,-0.21464 5.73016,-0.10491 6.29445,0.24384 0.56428,0.34874 1.11846,2.62016 1.23152,5.04759 l 0.20556,4.41352 -17.81945,0.0421 c -9.80069,0.0232 -17.96027,-0.20182 -18.1324,-0.5 z"
         id="path3115"
         inkscape:connector-curvature="0"
         sodipodi:nodetypes="csscsssssssssssscssssssscccssssscscc"
         inkscape:export-filename="/home/pascal/Desktop/sonos_traced.png"
         inkscape:export-xdpi="351.61841"
         inkscape:export-ydpi="351.61841" />
      <path
         style="fill:#e3e3e3"
         d="m 467.2933,700.74371 c -0.004,-1.31125 -1.23913,-2.86134 -3.25,-4.07848 l -3.24368,-1.96334 4.5,-0.53666 4.5,-0.53666 -7.16316,-1.3253 c -11.97341,-2.21527 -10.78595,6.85634 -11.1692,-85.32749 -0.26554,-63.86978 -0.075,-80.25389 0.94758,-81.48604 1.3804,-1.66328 7.82922,-1.32649 16.80861,0.87782 3.21269,0.78867 12.38418,0.75526 33.5,-0.12203 15.99189,-0.66441 31.01795,-1.4445 33.39123,-1.73352 l 4.31505,-0.5255 -0.27625,-7.41777 c -0.18299,-4.91379 0.14353,-7.83756 0.9673,-8.66133 0.81136,-0.81136 4.00058,-1.19075 9.17649,-1.09165 8.62461,0.16513 10.69349,0.77511 9.10811,2.68538 -0.61881,0.74561 -0.64281,1.7456 -0.0639,2.66097 0.51012,0.80655 0.93438,3.82896 0.9428,6.71646 0.011,3.76202 0.40223,5.25 1.38045,5.25 0.75083,0 2.50931,0.9 3.90773,2 3.06261,2.40905 8.37939,2.58996 13.48024,0.45869 2.02887,-0.84772 7.80834,-1.8119 12.84325,-2.14263 l 9.15439,-0.60133 1.14876,3.48079 c 1.628,4.93287 -0.0566,154.36102 -1.77646,157.57456 -0.65446,1.22287 -2.86238,3.06955 -4.90649,4.10375 -4.13031,2.0897 -19.67003,6.12617 -23.5847,6.12617 -3.14294,0 -3.822,1.01944 -2.17731,3.26868 1.20908,1.65353 1.62046,1.65659 7.71727,0.0575 3.54206,-0.92901 7.20243,-1.39658 8.13416,-1.03904 -5.88951,6.51221 -90.2109,10.59629 -118.31227,3.328 z m 43.77636,-180.68403 c -0.95306,-0.55535 -6.30132,-0.87851 -11.90911,-0.71959 l -10.17914,0.28848 -0.9534,-2.8375 c -1.20938,-3.59937 0.40368,-5.68562 3.09602,-4.00423 1.34419,0.83946 2.24053,0.76742 3.69635,-0.29711 1.05702,-0.77291 2.60976,-1.10517 3.45055,-0.73835 2.32917,1.01618 11.34155,1.35337 12.50257,0.46778 0.56436,-0.43049 3.34989,-0.7994 6.19005,-0.8198 4.4421,-0.0319 5.24393,0.26108 5.73634,2.09606 1.57157,5.85652 -0.49084,8.84256 -4.41484,6.39198 -1.51644,-0.94704 -2.20073,-0.94353 -3.16047,0.0162 -1.45723,1.45722 -1.79939,1.47039 -4.05492,0.15608 z"
         id="path3113"
         inkscape:connector-curvature="0"
         sodipodi:nodetypes="cscccsssssscsssscssssscssssssccsscsssscsssss"
         inkscape:export-filename="/home/pascal/Desktop/sonos_traced.png"
         inkscape:export-xdpi="351.61841"
         inkscape:export-ydpi="351.61841" />
      <path
         style="fill:#dbdbdb"
         d="m 469.26504,703.58691 c -2.2783,-2.74519 -0.69734,-4.95703 3.55745,-4.97706 2.18742,-0.0103 4.50119,-0.3506 5.14172,-0.75623 0.64052,-0.40563 1.33329,-0.2314 1.53949,0.38718 0.5288,1.58641 14.39752,2.4633 16.13629,1.02025 0.8998,-0.74676 3.03983,-0.88013 6.26322,-0.39031 l 4.89641,0.74404 -5,0.59979 c -4.56209,0.54726 -4.33196,0.61355 2.62756,0.7569 5.70622,0.11753 7.94113,-0.22074 8.87244,-1.3429 0.9189,-1.10721 3.50412,-1.52251 9.87244,-1.58595 11.42278,-0.1138 6.83062,-1.58636 -7.20688,-2.31103 -25.74351,-1.32896 -54.40539,-4.06853 -59.32713,-5.67062 -1.73887,-0.56603 -3.3887,-1.62103 -3.66631,-2.34445 -0.2776,-0.72342 -0.8311,-36.6122 -1.23,-79.75284 -0.56535,-61.14246 -0.45508,-78.94238 0.50012,-80.72718 1.35817,-2.53777 2.3347,-2.54455 18.55776,-0.12883 9.04923,1.34749 49.57501,-0.0979 68.6637,-2.44902 8.52908,-1.0505 12.09894,-1.06962 17.83357,-0.0955 3.94343,0.66983 7.519,1.78276 7.94571,2.47319 1.10004,1.77991 11.72047,1.54866 16.27508,-0.35438 5.0787,-2.12202 18.06407,-2.12326 19.82464,-0.002 1.42902,1.72185 1.53527,40.3419 0.31886,115.89283 -0.6474,40.20904 -0.69809,40.98315 -2.82297,43.10803 -3.10032,3.10032 -12.389,6.30655 -23.46037,8.09796 -5.26802,0.8524 -11.82822,1.92194 -14.57822,2.37676 -2.75,0.45483 -8.6,0.89143 -13,0.97024 -4.9427,0.0885 -7.2442,0.43858 -6.0223,0.91596 4.23776,1.65567 -2.0576,3.08676 -13.57863,3.08676 -6.17782,0 -10.99494,0.23746 -10.70471,0.52769 0.29023,0.29023 10.37773,0.52805 22.41667,0.52848 20.25163,7.3e-4 28.27154,-0.68543 42.63897,-3.64802 2.09128,-0.43123 2.75,-0.18345 2.75,1.03442 -4.50165,6.5578 -79.33386,17.1679 -116.03458,4.01584 z m 77.53458,-4.45834 c -0.33992,-0.55 0.11008,-1 1,-1 0.88992,0 1.33992,0.45 1,1 -0.33992,0.55 -0.78992,1 -1,1 -0.21008,0 -0.66008,-0.45 -1,-1 z m -58.25,-0.68933 c 0.9625,-0.25152 2.5375,-0.25152 3.5,0 0.9625,0.25153 0.175,0.45733 -1.75,0.45733 -1.925,0 -2.7125,-0.2058 -1.75,-0.45733 z m 6.75,-179.29835 c -0.825,-0.53166 -2.34368,-0.70378 -3.37485,-0.38248 -2.0264,0.63141 -3.58502,-1.04378 -3.60984,-3.87984 -0.0174,-1.99464 2.59224,-2.39548 3.25526,-0.5 0.32048,0.91622 0.96456,0.78271 2.41207,-0.5 2.01869,-1.78886 4.46891,-2.26512 5.63812,-1.09591 0.64639,0.64639 4.3525,0.6195 16.31994,-0.11843 l 6.1407,-0.37864 0.60484,3.0242 c 0.33266,1.6633 0.35529,3.42797 0.0503,3.92149 -0.87807,1.42074 -3.25445,1.04505 -4.21194,-0.6659 -0.79332,-1.41758 -0.99565,-1.41758 -2.17214,0 -1.38602,1.67005 -4.6003,2.10378 -5.44631,0.73491 -0.57715,-0.93381 -10.30107,-0.79979 -12.60615,0.17375 -0.825,0.34844 -2.175,0.19852 -3,-0.33315 z m 3,-3.01232 c 0,-0.55 -0.45,-1 -1,-1 -0.55,0 -1,0.45 -1,1 0,0.55 0.45,1 1,1 0.55,0 1,-0.45 1,-1 z"
         id="path3111"
         inkscape:connector-curvature="0"
         sodipodi:nodetypes="csscsscsssssscssssssscssssssssssccssssssssssscsssscscsscsssssss"
         inkscape:export-filename="/home/pascal/Desktop/sonos_traced.png"
         inkscape:export-xdpi="351.61841"
         inkscape:export-ydpi="351.61841" />
      <path
         style="fill:#c7c7c7"
         d="m 511.29962,708.44286 c -21.70673,-1.41281 -38.66958,-3.58387 -40.23539,-5.14968 -0.56659,-0.56659 -0.74024,-1.78574 -0.38587,-2.70921 0.5207,-1.35691 1.45745,-1.55742 4.88278,-1.04516 10.52892,1.57461 27.27794,2.60638 52.23848,3.21799 22.70611,0.55636 29.03956,0.38536 39.82474,-1.07525 7.05361,-0.95526 13.08024,-1.48134 13.3925,-1.16907 1.30799,1.30798 -2.38684,3.74259 -8.58705,5.65821 -4.12429,1.27424 -11.54358,2.36368 -19.63019,2.88247 -15.71146,1.00796 -16.90697,0.99038 -41.5,-0.6103 z m 4,-14.02419 c -12.08091,-0.6032 -56.48369,-4.31383 -58.6871,-4.90433 -1.25556,-0.33649 -2.63981,-1.88479 -3.25,-3.63518 -0.71531,-2.05193 -1.0629,-28.4966 -1.0629,-80.86463 0,-74.54999 0.0772,-77.85694 1.84087,-78.8008 1.29007,-0.69042 3.30973,-0.51399 6.75,0.58966 6.60119,2.11769 45.80446,2.02592 71.77762,-0.16802 19.04084,-1.60836 25.76901,-1.36095 30.52856,1.12264 3.464,1.80754 13.81168,1.73743 19.10295,-0.12944 5.76887,-2.03537 14.90675,-1.95404 17.92431,0.15954 l 2.36933,1.65954 -0.65115,39.59046 c -0.35813,21.77475 -0.69945,55.52998 -0.7585,75.01161 -0.061,20.12919 -0.52843,36.62904 -1.0827,38.21903 -1.38392,3.96991 -9.76463,7.84759 -19.55507,9.04795 -4.26042,0.52236 -10.73561,1.59372 -14.3893,2.3808 -6.25118,1.34665 -31.23446,1.70091 -50.85692,0.72117 z m -3,-175.68311 c 0,-0.21616 0.69837,-0.661 1.55194,-0.98855 0.88992,-0.34149 1.29132,-0.17385 0.94098,0.39301 -0.58726,0.95021 -2.49292,1.40545 -2.49292,0.59554 z m 7,-1.0252 c 0,-0.78002 -0.27314,-2.13002 -0.60699,-3 -0.39831,-1.03799 -0.0545,-1.58179 1,-1.58179 0.88385,0 1.61313,0.3375 1.62064,0.75 0.008,0.4125 0.285,1.7625 0.61664,3 0.44329,1.65413 0.17484,2.25 -1.01366,2.25 -0.88915,0 -1.61663,-0.6382 -1.61663,-1.41821 z m -15.91952,-0.67922 c -1.7547,-0.69879 -2.11828,-1.26477 -1.32321,-2.05984 1.3758,-1.3758 6.52524,-0.19027 6.00127,1.38165 -0.53572,1.60716 -1.86237,1.79949 -4.67806,0.67819 z m 7.33692,-1.90257 c 0.065,-0.88667 1.09254,-1.5 2.51296,-1.5 1.32164,0 2.60922,0.675 2.86131,1.5 0.3699,1.2106 0.2027,1.25884 -0.86667,0.25 -0.72875,-0.6875 -1.877,-1.25 -2.55168,-1.25 -0.67467,0 -1.4155,0.5625 -1.64629,1.25 -0.24125,0.71867 -0.37286,0.6124 -0.30963,-0.25 z"
         id="path3109"
         inkscape:connector-curvature="0"
         inkscape:export-filename="/home/pascal/Desktop/sonos_traced.png"
         inkscape:export-xdpi="351.61841"
         inkscape:export-ydpi="351.61841" />
      <path
         style="fill:#b7b7b7"
         d="m 522.79962,708.54297 c -2.75,-0.19998 -11.975,-0.84909 -20.5,-1.44247 -23.63815,-1.64535 -32.82768,-3.54425 -30.1432,-6.22873 0.58875,-0.58875 4.82012,-0.5372 11.29238,0.13758 28.85974,3.0088 78.00124,3.31306 91.00562,0.56345 1.46014,-0.30873 2.91038,-0.14779 3.22275,0.35764 0.73629,1.19135 -5.50861,3.93981 -11.87755,5.22746 -5.26347,1.06415 -34.4741,2.00505 -43,1.38507 z m -2,-15.09668 c -2.75,-0.17697 -13.1,-0.98733 -23,-1.80079 -9.9,-0.81345 -23.13453,-1.78457 -29.41006,-2.15803 -9.1383,-0.54383 -11.7764,-1.04536 -13.25,-2.51896 -1.72392,-1.72392 -1.84022,-4.31486 -1.84443,-41.08994 -0.002,-21.5875 -0.29859,-56.58425 -0.65803,-77.77055 -0.61345,-36.15819 -0.54394,-38.63013 1.13343,-40.30751 1.02206,-1.02205 2.4799,-1.52106 3.4058,-1.16576 6.03719,2.31669 13.68947,2.70367 43.56172,2.20296 17.63386,-0.29557 36.40341,-1.06237 41.7101,-1.704 8.83915,-1.06873 10.27058,-0.99204 17.06379,0.91414 8.94662,2.51042 13.69956,2.59602 24.55046,0.44211 5.93649,-1.17839 9.45572,-1.3877 12.5,-0.74345 l 4.23722,0.89671 -0.37781,75.99267 c -0.21251,42.74281 -0.77514,76.75897 -1.28591,77.74403 -1.91807,3.6992 -10.69659,6.91364 -22.77641,8.34006 -6.35793,0.75076 -13.1319,1.82482 -15.05327,2.3868 -3.16815,0.92666 -28.13192,1.1359 -40.5066,0.33951 z"
         id="path3107"
         inkscape:connector-curvature="0"
         inkscape:export-filename="/home/pascal/Desktop/sonos_traced.png"
         inkscape:export-xdpi="351.61841"
         inkscape:export-ydpi="351.61841" />
      <path
         style="fill:#a5a5a5"
         d="m 505.29962,707.10831 c -15.58362,-1.25238 -29.5,-3.05269 -31.06265,-4.01846 -3.16079,-1.95347 0.94857,-2.16635 17.78344,-0.92122 20.13032,1.48885 63.74328,1.86593 75.77921,0.65518 7.03828,-0.70801 7.81968,-0.62842 6.5,0.66207 -3.18361,3.1132 -9.45362,3.88311 -34,4.17496 -13.475,0.16021 -29.225,-0.0884 -35,-0.55253 z m 36,-13.64963 c -8.28409,-0.4331 -45.33861,-3.00925 -67.79801,-4.71352 -10.44826,-0.79284 -17.77399,-1.78847 -18.5,-2.5143 -0.91072,-0.91049 -1.2669,-20.05791 -1.46985,-79.01473 -0.29345,-85.25064 -0.55064,-81.49219 5.39622,-78.85906 3.60507,1.59625 70.23503,1.5745 83.87164,-0.0274 7.98587,-0.93808 10.01145,-0.82001 17.97615,1.04788 8.62544,2.02285 9.38732,2.04513 19.5,0.5704 5.78812,-0.84409 12.54885,-1.26127 15.02385,-0.92706 l 4.5,0.60765 -0.3758,75.5 c -0.32871,66.04097 -0.56784,75.71976 -1.90869,77.25409 -3.06137,3.50313 -11.45723,6.60051 -19.71551,7.2734 -4.4,0.35852 -10.7,1.24115 -14,1.96141 -7.85263,1.71392 -14.51177,2.25885 -22.5,1.84121 z"
         id="path3105"
         inkscape:connector-curvature="0"
         inkscape:export-filename="/home/pascal/Desktop/sonos_traced.png"
         inkscape:export-xdpi="351.61841"
         inkscape:export-ydpi="351.61841" />
      <path
         style="fill:#9a9a9a"
         d="m 517.29962,707.53436 c -2.475,-0.20103 -10.8,-0.85777 -18.5,-1.45943 -7.7,-0.60166 -16.1375,-1.54801 -18.75,-2.10301 -5.32708,-1.13167 -6.68486,-3.3996 -1.5,-2.50547 8.17885,1.41044 51.13661,2.88567 71.40558,2.45217 12.3388,-0.2639 22.07649,-0.12542 21.6393,0.30772 -2.04189,2.02302 -11.42689,3.0832 -29.79488,3.36581 -11,0.16924 -22.025,0.14324 -24.5,-0.0578 z m 12.5,-15.34979 c -4.4,-0.44438 -22.175,-1.80583 -39.5,-3.02544 -17.325,-1.21961 -32.5125,-2.61577 -33.75,-3.10258 l -2.25,-0.8851 -0.1301,-65.27144 c -0.15196,-76.23761 -0.005,-90.01162 0.97068,-91.00155 0.3958,-0.40156 2.50609,-0.17656 4.68953,0.5 4.97237,1.54074 67.1173,1.43502 81.98573,-0.13946 8.53995,-0.90434 11.10584,-0.80732 17.41281,0.6584 8.34205,1.93866 7.48992,0.4595 8.66591,15.04267 0.58142,7.21017 0.95675,8.44659 2.78864,9.18661 1.73739,0.70185 1.79972,0.86648 0.34775,0.9185 -1.37955,0.0494 -1.6309,0.61383 -1.14159,2.56339 0.41526,1.65454 0.21034,2.5 -0.60595,2.5 -0.86645,0 -1.02807,0.96693 -0.54322,3.25 1.24068,5.84212 1.59097,9.13828 1.78762,16.82103 0.18653,7.28747 0.27876,7.55479 2.46247,7.13735 1.56867,-0.29987 2.23144,-1.09316 2.14802,-2.57103 -0.0664,-1.17554 0.20434,-3.32576 0.60155,-4.77826 0.42366,-1.54919 0.29112,-2.90733 -0.32061,-3.2854 -0.71862,-0.44413 -0.69729,-1.48842 0.0686,-3.35909 1.32145,-3.22757 1.16197,-14.57236 -0.2115,-15.04527 -0.60297,-0.20761 -0.58219,-1.03731 0.0558,-2.22948 0.55892,-1.04435 0.78184,-2.92054 0.49538,-4.16933 -0.98845,-4.30899 -1.24549,-13.82682 -0.38774,-14.35694 1.3302,-0.82211 1.01548,-4.4098 -0.38983,-4.44399 -0.81741,-0.0199 -0.72796,-0.33638 0.25848,-0.91453 2.45895,-1.44119 15.46042,-2.91133 19.11226,-2.16112 l 3.37926,0.69421 -0.0928,31.45593 c -0.26297,89.1194 -0.67714,116.86604 -1.77818,119.12531 -1.88802,3.87412 -8.47288,6.4263 -19.89726,7.71182 -5.7421,0.64613 -11.96828,1.63191 -13.83596,2.19062 -4.70535,1.4076 -22.76951,1.95638 -32.39578,0.98417 z m 43.5,-86.056 c 0,-1.11111 -0.66667,-2 -1.5,-2 -1.80819,0 -1.93321,1.16679 -0.3,2.8 1.61379,1.61379 1.8,1.53102 1.8,-0.8 z m 0.48106,-8.10753 c -0.30172,-1.71258 -0.0287,-3.73259 0.60818,-4.5 0.87826,-1.05824 0.85684,-1.75251 -0.0892,-2.89247 -1.59727,-1.9246 -2.63239,-1.90035 -3.39212,0.0795 -0.82952,2.16169 0.43174,9.51408 1.51702,8.84334 0.48131,-0.29747 0.8751,-0.0643 0.8751,0.51817 0,0.58246 0.23142,1.05902 0.51426,1.05902 0.28285,0 0.2679,-1.39839 -0.0332,-3.10753 z"
         id="path3103"
         inkscape:connector-curvature="0"
         inkscape:export-filename="/home/pascal/Desktop/sonos_traced.png"
         inkscape:export-xdpi="351.61841"
         inkscape:export-ydpi="351.61841" />
      <path
         style="fill:#939393"
         d="m 521.29962,707.54564 c -2.475,-0.204 -11.25241,-0.85525 -19.50535,-1.44721 -8.25295,-0.59196 -17.47795,-1.69285 -20.5,-2.44641 -5.05901,-1.26148 -4.18646,-1.31673 11.00535,-0.69678 9.075,0.37033 30.54047,0.67333 47.70105,0.67333 17.16058,0 30.86704,0.33354 30.45881,0.74119 -2.26949,2.26628 -34.74314,4.36418 -49.15986,3.17588 z m -12,-17.49203 c -12.375,-1.00975 -29.20229,-2.30464 -37.39398,-2.87753 -8.1917,-0.57289 -15.5042,-1.54804 -16.25,-2.16701 -1.11982,-0.92936 -1.35602,-14.50598 -1.35602,-77.94393 0,-45.75402 0.37253,-77.04877 0.92122,-77.38788 1.70329,-1.05269 14.90904,1.73008 14.40787,3.03609 -0.25599,0.66711 0.0187,1.51213 0.61041,1.87783 0.72271,0.44666 0.58097,1.15977 -0.43183,2.17258 -2.10088,2.10088 -2.04137,6.78359 0.0759,5.97112 1.01468,-0.38937 1.41883,-0.15838 1.125,0.64301 -0.25221,0.68787 -0.87146,1.1693 -1.37612,1.06983 -0.50466,-0.0995 -1.01983,1.16125 -1.14482,2.80161 -0.22392,2.93869 1.64715,5.87924 3.74095,5.87924 1.45688,0 1.35296,2.29669 -0.17857,3.9467 -0.6875,0.74069 -0.8,1.112 -0.25,0.82514 0.55,-0.28687 1.9,-0.15951 3,0.28301 1.36692,0.5499 1.5143,0.82683 0.46561,0.87487 -0.84392,0.0386 -2.30642,1.37721 -3.25,2.97457 -2.07149,3.50675 -2.12243,4.09571 -0.35428,4.09571 0.91286,0 1.20389,0.82359 0.88342,2.5 -0.44716,2.33919 -0.21312,2.5 3.63867,2.5 3.88167,0 4.11658,0.16652 4.11658,2.91821 0,4.41444 -0.97269,6.08179 -3.54797,6.08179 -1.2837,0 -2.65592,0.52089 -3.04939,1.15752 -0.49021,0.79319 -0.0362,0.97992 1.44237,0.59326 1.18676,-0.31034 1.90557,-0.15623 1.59735,0.34248 -0.30822,0.49871 -0.0838,0.90674 0.49862,0.90674 0.58246,0 1.05902,-0.45 1.05902,-1 0,-0.55 1.07686,-1 2.39301,-1 1.31616,0 2.65203,-0.675 2.96862,-1.5 0.33504,-0.87311 1.83216,-1.5 3.58223,-1.5 2.79388,0 2.93938,-0.17691 2.05614,-2.5 -0.7024,-1.84745 -0.62136,-2.5 0.31047,-2.5 0.69352,0 1.26096,-0.9 1.26096,-2 0.2909,-1.41881 0.0776,-3.08494 3.20211,-6.55935 -2.27556,-4.40218 -1.34409,-5.2743 -1.77354,-8.41088 0,-2.31829 0.52931,-2.98749 2.75,-3.47679 2.21937,-0.48901 2.79311,-1.21337 2.97344,-3.75402 0.12289,-1.73145 0.74304,-3.46923 1.37812,-3.86172 0.63507,-0.3925 0.86408,-1.18382 0.50892,-1.75848 -0.35517,-0.57467 0.71218,-1.847 2.37188,-2.82741 2.95661,-1.74651 4.10038,-4.35135 1.91065,-4.35135 -0.60884,0 -0.84797,-0.675 -0.53138,-1.5 0.39152,-1.02029 -0.054,-1.5 -1.39301,-1.5 -1.08274,0 -1.96862,-0.45 -1.96862,-1 0,-0.59232 3.65545,-1 8.96636,-1 4.9315,0 16.744,-0.45058 26.25,-1.00128 13.23433,-0.7667 18.68159,-0.70813 23.2505,0.25 l 5.96687,1.25128 0.26379,8 c 0.14508,4.4 0.24138,13.175 0.214,19.5 -0.0274,6.325 0.003,12.625 0.0685,14 0.0651,1.375 0.23894,6.775 0.38642,12 0.14748,5.225 0.63285,10.77217 1.07861,12.32705 0.52453,1.82966 0.36571,3.65806 -0.45016,5.18254 -0.70773,1.3224 -0.93342,3.15261 -0.5146,4.17295 0.41032,0.9996 0.92582,5.16067 1.14556,9.24681 0.21975,4.08615 0.58054,7.61035 0.80175,7.83156 0.22122,0.22122 -0.23047,1.91644 -1.00375,3.76715 -0.81573,1.95231 -1.01819,3.60461 -0.48227,3.93582 0.50802,0.31398 0.90442,1.80055 0.88087,3.3035 -0.0235,1.50294 0.39618,3.85762 0.93273,5.23262 0.53655,1.375 0.64364,3.4 0.23798,4.5 -0.42212,1.14464 -0.18193,3.09449 0.56163,4.55913 0.76282,1.50261 0.95285,3.11953 0.46027,3.91653 -0.4614,0.74657 -0.43968,2.40746 0.0483,3.69087 0.48796,1.28341 0.56083,2.34715 0.16194,2.36388 -0.39889,0.0167 0.11624,0.5193 1.14473,1.11683 1.40695,0.81742 1.55658,1.28012 0.60428,1.86867 -1.36844,0.84574 -0.64625,3.98409 0.9168,3.98409 0.52461,0 1.4931,-1.6875 2.15219,-3.75 0.6591,-2.0625 1.59399,-4.1775 2.07755,-4.7 1.35783,-1.46717 1.04311,-4.87097 -0.6775,-7.32749 -1.31984,-1.88426 -1.33711,-2.22251 -0.11355,-2.22251 0.83965,0 1.62769,-1.25698 1.88434,-3.00569 0.514,-3.50211 0.18865,-3.99431 -2.64026,-3.99431 -1.15103,0 -2.65485,-0.9 -3.34181,-2 -1.48381,-2.37596 -0.56754,-2.61358 1.80359,-0.46773 1.55318,1.40561 1.68631,1.30228 1.61045,-1.25 -0.0455,-1.53025 0.4013,-2.69118 0.99286,-2.57985 0.59156,0.11133 0.95441,-0.90117 0.80635,-2.25 -0.14806,-1.34883 0.14117,-2.45242 0.64274,-2.45242 0.50157,0 0.91194,-1.035 0.91194,-2.3 0,-1.265 0.50079,-2.80079 1.11287,-3.41287 0.61493,-0.61493 0.75645,-1.68955 0.31629,-2.40174 -1.06368,-1.72108 -1.15245,-11.8858 -0.10379,-11.88557 0.45395,1e-4 0.69553,-1.23759 0.53684,-2.75042 -0.15868,-1.51283 -0.0513,-3.20033 0.23874,-3.75 0.41836,-0.79298 0.29392,-26.89998 -0.14776,-30.9994 -0.0593,-0.55 0.23238,-6.4 0.64808,-13 0.41571,-6.6 0.7011,-13.125 0.63421,-14.5 -0.0669,-1.375 -0.257,-4.96131 -0.42246,-7.96958 l -0.30085,-5.46957 4.38,-0.86619 c 2.409,-0.4764 5.92049,-0.57719 7.80331,-0.22397 l 3.4233,0.64222 -0.58244,54.69354 c -0.66745,62.6757 -1.36887,96.11356 -2.03889,97.19768 -1.27302,2.05979 -8.50008,4.1765 -18.68862,5.47364 -6.21986,0.79188 -12.88086,1.90833 -14.80223,2.48101 -5.00755,1.49252 -25.01543,1.08703 -51.00661,-1.03374 z M 478.56405,578.5308 c 0.32877,-0.32877 0.34115,-1.2665 0.0275,-2.08384 -0.46482,-1.21131 -0.72659,-1.23946 -1.41579,-0.15224 -1.47392,2.32517 -0.41169,4.03607 1.38829,2.23608 z m 17.98557,-41.09156 c 0.9625,-0.25152 2.5375,-0.25152 3.5,0 0.9625,0.25153 0.175,0.45733 -1.75,0.45733 -1.925,0 -2.7125,-0.2058 -1.75,-0.45733 z"
         id="path3101"
         inkscape:connector-curvature="0"
         sodipodi:nodetypes="ssssssssssssssssscssscscsssssscssssscssscccsscssssssssscsscssscsssccssssccssssscssssscssssssssccssscsscsssssssssssss"
         inkscape:export-filename="/home/pascal/Desktop/sonos_traced.png"
         inkscape:export-xdpi="351.61841"
         inkscape:export-ydpi="351.61841" />
      <path
         style="fill:#8b8b8b"
         d="m 515.79962,707.0549 c -16.36247,-0.98605 -33.38945,-2.9092 -36,-4.0661 -1.30832,-0.5798 0.075,-0.7092 4,-0.37416 3.3,0.28168 23.98754,0.80311 45.97231,1.15873 21.98478,0.35562 39.0118,1.0019 37.83782,1.43618 -7.00654,2.59189 -27.38042,3.31755 -51.81013,1.84535 z m 5,-16.43231 c -8.8,-0.76333 -21.10978,-1.87527 -27.35506,-2.471 -6.24528,-0.59572 -16.37028,-1.31612 -22.5,-1.60088 -6.12972,-0.28477 -12.15744,-0.72982 -13.39494,-0.989 l -2.25,-0.47124 -0.0391,-31.23095 c -0.0215,-17.17702 -0.23866,-51.66928 -0.48259,-76.64947 -0.29123,-29.8249 -0.096,-45.83722 0.56861,-46.63803 0.69553,-0.83808 2.12237,-0.96911 4.5618,-0.41893 1.95234,0.44033 3.69676,0.95244 3.8765,1.13804 0.85785,0.88581 1.21585,6.77076 0.42802,7.03589 -0.9499,0.31968 -1.08099,2.49018 -0.59426,9.83923 0.33083,4.99522 1.31973,7.30363 2.7501,6.41961 1.53142,-0.94646 1.05151,1.19772 -0.5691,2.54271 -1.68144,1.39547 -2.02312,4 -0.52475,4 0.61591,0 0.63943,0.88326 0.0638,2.39718 -0.50127,1.31845 -0.67138,2.6372 -0.37802,2.93056 0.29336,0.29336 0.73325,6.06208 0.97753,12.81938 0.24429,6.7573 0.78458,12.52604 1.20066,12.81944 0.41608,0.29339 0.8609,2.07853 0.98849,3.96697 0.12759,1.88844 0.68732,3.98218 1.24385,4.65275 0.6849,0.82525 0.6758,1.33144 -0.0282,1.56647 -1.59809,0.53358 -3.18296,6.84363 -1.72364,6.86256 0.69411,0.009 0.5624,0.41457 -0.3198,0.98469 -0.825,0.53316 -0.9926,0.97627 -0.37245,0.98469 0.62016,0.008 1.68776,-0.65969 2.37245,-1.48469 0.68468,-0.825 1.72579,-1.5 2.31357,-1.5 0.58778,0 0.19518,0.66069 -0.87244,1.4682 -1.06763,0.8075 -1.49113,1.4894 -0.94113,1.51531 0.55,0.0259 0.33583,0.46712 -0.47593,0.98045 -1.20527,0.76218 -1.02188,1.11452 1,1.9213 2.38159,0.95033 2.3914,0.99038 0.25731,1.05135 -1.54854,0.0443 -2.04477,0.51642 -1.64301,1.56339 0.31658,0.825 1.00402,1.5 1.52763,1.5 0.52362,0 0.67392,-0.45 0.334,-1 -0.33992,-0.55 0.30852,-1 1.44098,-1 2.45748,0 2.65429,1.26108 0.4786,3.06674 -0.89705,0.74449 -1.39573,2.27771 -1.1533,3.5459 0.31075,1.62559 -0.1441,2.39134 -1.66959,2.81079 -1.6622,0.45705 -1.80794,0.76254 -0.7033,1.47419 0.81476,0.52489 1.1651,1.77071 0.84362,3.00002 -0.52159,1.99457 0.72443,3.07054 1.42965,1.23454 0.18334,-0.47729 1.45834,-1.18177 2.83334,-1.5655 1.375,-0.38373 2.01718,-0.33072 1.42706,0.11781 -3.10188,2.35764 -4.03607,10.31551 -1.21096,10.31551 0.98115,0 1.7839,0.45 1.7839,1 0,0.55 1.2375,1.04486 2.75,1.09968 2.58496,0.0937 2.61143,0.13871 0.44098,0.75 -1.26996,0.35768 -2.28246,0.98782 -2.25,1.40032 0.0325,0.4125 0.059,1.47378 0.059,2.35841 0,1.19937 0.61165,1.45489 2.40514,1.00476 2.03573,-0.51094 2.325,-0.2972 1.88337,1.39159 -0.31763,1.2146 -1.35645,1.98925 -2.65514,1.97993 -1.74393,-0.0125 -1.85955,-0.19227 -0.63337,-0.98469 1.27645,-0.8249 1.23451,-0.97166 -0.28139,-0.98469 -0.97976,-0.008 -2.0404,0.65969 -2.35698,1.48469 -0.31659,0.825 -1.17591,1.5 -1.9096,1.5 -2.28178,0 -2.49214,1.64773 -0.50314,3.94107 1.80749,2.08405 2.03765,2.11385 4.39527,0.56908 1.36835,-0.89657 2.72411,-2.24568 3.01281,-2.99802 0.2887,-0.75234 1.69048,-1.51284 3.11506,-1.69001 2.85818,-0.15318 2.53392,-1.92969 3.56009,-3.82212 0.75355,-1.375 1.50649,-3.31843 1.6732,-4.31873 0.24158,-1.44953 -0.13445,-1.67985 -1.85238,-1.1346 -1.71998,0.5459 -2.02928,0.35525 -1.53085,-0.94364 0.50599,-1.31859 0.15485,-1.50985 -1.84873,-1.00699 -1.51688,0.38072 -2.47336,0.19214 -2.47336,-0.48763 0,-0.60963 1.24999,-1.10841 2.77776,-1.10841 1.52777,0 3.5211,-0.7875 4.42963,-1.75 2.0742,-2.19742 4.56741,-4.25 5.16235,-4.25 0.92363,0 -0.13303,5.00986 -1.37137,6.50197 -1.07818,1.29912 -1.02109,1.44398 0.36019,0.91393 0.90279,-0.34643 1.64144,-1.23122 1.64144,-1.96618 0,-0.73497 0.94878,-2.00087 2.10841,-2.8131 2.53997,-1.77907 1.69147,-3.63662 -1.66115,-3.63662 -1.98249,0 -2.35681,-0.41791 -2.0153,-2.25 0.23068,-1.2375 0.45286,-2.8125 0.49373,-3.5 0.0409,-0.6875 0.71181,-1.25 1.49098,-1.25 0.77916,0 1.61342,0.5625 1.8539,1.25 0.32703,0.93496 0.91511,0.84183 2.33333,-0.36951 1.04286,-0.89073 2.5711,-1.86771 3.3961,-2.17105 0.825,-0.30335 0.21004,-0.58707 -1.36658,-0.63049 -2.51685,-0.0693 -2.80732,-0.38891 -2.38089,-2.61963 0.38896,-2.03472 0.1225,-2.4828 -1.33798,-2.25 -1.00301,0.15987 -1.73161,-0.1473 -1.6191,-0.6826 0.1125,-0.53531 1.32955,-0.88461 2.70455,-0.77622 2.36503,0.18642 2.33804,0.11993 -0.5,-1.23162 -2.45137,-1.1674 -2.63425,-1.45856 -1,-1.59209 1.39297,-0.11382 1.08945,-0.39512 -1,-0.92679 -2.42542,-0.61716 -2.56906,-0.78603 -0.75,-0.88169 1.2375,-0.0651 2.1375,-0.62456 2,-1.24331 -0.1375,-0.61875 0.3125,-1.33125 1,-1.58333 0.6875,-0.25209 1.25,0.0292 1.25,0.625 0,0.59583 1.125,1.08333 2.5,1.08333 1.61404,0 2.5,0.56111 2.5,1.58333 0,0.87084 0.52128,1.40958 1.15841,1.1972 1.5443,-0.51477 2.12692,-4.7318 0.86398,-6.25355 -0.55277,-0.66605 -0.71953,-1.4965 -0.37059,-1.84545 0.34895,-0.34895 -0.14268,-0.93267 -1.09252,-1.29715 -1.36879,-0.52526 -1.45032,-0.83807 -0.39313,-1.50823 1.0404,-0.65951 0.97238,-0.84889 -0.30916,-0.86084 -2.68765,-0.025 -3.12355,-2.97148 -0.59034,-3.99031 1.22834,-0.49402 1.92726,-0.92675 1.55316,-0.96161 -0.37411,-0.0349 -0.29476,-1.40732 0.17632,-3.04991 0.47109,-1.64258 0.49593,-3.20937 0.0552,-3.48176 -0.44073,-0.27238 -0.80133,-1.60453 -0.80133,-2.96031 0,-1.71592 0.6458,-2.59179 2.125,-2.88206 1.67111,-0.32792 1.53761,-0.44607 -0.625,-0.55317 -2.65416,-0.13143 -2.68901,-0.20367 -1,-2.07266 0.9625,-1.06506 2.65,-3.08541 3.75,-4.48966 1.1,-1.40425 2.7875,-2.55784 3.75,-2.56352 0.9625,-0.006 1.75,-0.46034 1.75,-1.01034 0,-0.55 -0.70156,-1 -1.55902,-1 -0.85746,0 -1.27636,-0.45734 -0.9309,-1.01631 0.34546,-0.55897 0.95303,-0.8155 1.35015,-0.57007 0.39712,0.24543 0.70451,-0.87223 0.68308,-2.48369 -0.0375,-2.82367 -2.37849,-4.28256 -2.69562,-1.67993 -0.0838,0.6875 -0.2049,1.7 -0.26916,2.25 -0.0643,0.55 -0.55822,1.13033 -1.09768,1.28961 -1.52865,0.45136 -1.74097,-3.37964 -0.2724,-4.91496 2.45879,-2.57056 3.74131,-6.52489 2.51422,-7.75198 -0.83023,-0.83023 -0.78221,-1.12267 0.18432,-1.12267 0.73825,0 1.06186,-0.63879 0.74367,-1.46797 -0.30982,-0.80739 -0.1024,-1.75284 0.46093,-2.101 0.56333,-0.34816 0.88251,-2.27507 0.70927,-4.28202 -0.29169,-3.37933 -0.0565,-3.73722 3.18208,-4.84257 1.92338,-0.65646 2.70956,-1.21896 1.74706,-1.25 -1.30173,-0.042 -1.75,-0.90175 -1.75,-3.35644 0,-1.815 -0.50881,-3.80881 -1.1307,-4.4307 -0.84093,-0.84093 -0.64873,-1.03993 0.75,-0.77651 1.03439,0.1948 2.24476,0.38862 2.68972,0.4307 0.44496,0.0421 0.5309,0.52651 0.19098,1.07651 -0.33992,0.55 -0.0933,1 0.54797,1 0.6413,0 0.89286,-0.675 0.55902,-1.5 -0.33385,-0.825 -0.85316,-2.10471 -1.15404,-2.84379 -0.43219,-1.06167 2.01516,-1.48157 11.657,-2 16.82699,-0.90478 26.3255,-0.82135 29.15947,0.25612 l 2.39962,0.91234 0.20695,24.83766 c 0.11383,13.66072 0.18218,30.01267 0.15191,36.33767 -0.0303,6.325 -0.0595,12.4 -0.0649,13.5 -0.005,1.1 0.39576,4.7 0.89147,8 0.52829,3.51681 0.53425,8.04199 0.0144,10.93396 -0.48779,2.71367 -0.61378,5.79447 -0.27997,6.84621 0.33381,1.05174 0.6337,8.18618 0.66642,15.85432 0.0327,7.66813 0.39209,14.14761 0.7986,14.39884 0.4065,0.25124 0.76924,2.98062 0.80609,6.0653 0.0368,3.08468 0.44925,6.1244 0.91646,6.75494 0.46721,0.63054 0.75423,3.81651 0.63782,7.07995 l -0.21164,5.93352 -4.35134,1.37571 c -6.38226,2.01781 -24.1221,2.3325 -42.35133,0.75127 z m -47.51531,-44.24402 c -0.008,-0.9625 -0.46061,-2.425 -1.00486,-3.25 -0.74363,-1.12724 -0.93547,-0.69236 -0.77198,1.75 0.22268,3.32647 1.8045,4.66184 1.77684,1.5 z m 32.51531,-46.25 c 0.33992,-0.55 0.14148,-1 -0.44098,-1 -0.58246,0 -1.05902,0.45 -1.05902,1 0,0.55 0.19844,1 0.44098,1 0.24254,0 0.7191,-0.45 1.05902,-1 z m 4.93402,-4.68866 c 0.42198,-1.09966 0.13757,-1.36092 -1.00447,-0.92268 -0.87622,0.33624 -1.78132,0.61134 -2.01134,0.61134 -0.23001,0 -0.41821,0.66088 -0.41821,1.46862 0,1.83776 2.62406,0.95344 3.43402,-1.15728 z m -1.43402,-6.00247 c 0,-2.56202 -0.0677,-2.59853 -1.41132,-0.76103 -1.43501,1.96248 -1.23204,3.45216 0.47034,3.45216 0.51754,0 0.94098,-1.21101 0.94098,-2.69113 z m 68.43359,95.34557 c 0.14161,-1.29006 0.62152,-2.93459 1.06645,-3.65451 0.55825,-0.90326 0.42023,-1.06869 -0.4453,-0.53376 -0.96364,0.59556 -1.0134,0.32509 -0.21473,-1.16723 0.57175,-1.06833 1.03068,-3.71013 1.01984,-5.87068 -0.0109,-2.16054 0.65499,-6.85326 1.47964,-10.42826 0.9622,-4.17131 1.37279,-9.89532 1.14607,-15.97723 -0.1943,-5.21248 -0.0228,-9.93748 0.38105,-10.5 0.40388,-0.56252 0.71162,-7.43495 0.68386,-15.27206 -0.0278,-7.8371 0.34275,-14.2496 0.82336,-14.25 0.48061,-3.9e-4 0.58844,-2.58821 0.23963,-5.75071 -0.34881,-3.1625 -0.67451,-6.2 -0.72377,-6.75 -0.0493,-0.55 0.20175,-5.95 0.5578,-12 0.79722,-13.54651 0.75449,-11.98773 0.65796,-24 -0.14853,-18.48393 -0.19008,-20.9883 -0.39817,-24 -0.19648,-2.84366 0.01,-3.01581 3.95839,-3.30338 3.56145,-0.25937 4.26781,0.0184 4.86983,1.91522 0.38728,1.22023 0.62628,13.50675 0.5311,27.30338 -0.18657,27.04383 -0.18783,27.46789 -0.0915,30.83478 0.0717,2.50771 -0.007,14.57154 -0.14602,22.25 -0.0865,4.79234 -0.029,8.06093 0.18895,10.75 0.21499,2.65214 -0.97877,24.49576 -1.41196,25.8362 -0.43612,1.34953 -0.71821,9.01171 -0.56748,15.4138 0.0388,1.65 0.11993,6.375 0.18017,10.5 l 0.10954,7.5 -3.41414,1.74845 c -1.87777,0.96164 -5.062,1.74914 -7.07607,1.75 -3.24866,10e-4 -3.63289,-0.26317 -3.40447,-2.34401 z m -98.93359,-47.65444 c 0.33992,-0.55 0.81648,-1 1.05902,-1 0.24254,0 0.44098,0.45 0.44098,1 0,0.55 -0.47656,1 -1.05902,1 -0.58246,0 -0.7809,-0.45 -0.44098,-1 z m 0.5,-2.38342 c 0,-0.21089 1.125,-0.59848 2.5,-0.86133 1.375,-0.26285 2.5,-0.0903 2.5,0.38342 0,0.47373 -1.125,0.86133 -2.5,0.86133 -1.375,0 -2.5,-0.17254 -2.5,-0.38342 z m 27.8125,-59.29969 c 0.72187,-0.28887 1.58437,-0.25335 1.91667,0.0789 0.33229,0.33229 -0.25834,0.56864 -1.3125,0.52522 -1.16495,-0.048 -1.4019,-0.28495 -0.60417,-0.60417 z m 4.1669,-23.32962 c -1.1436,-0.70678 -1.19897,-1.1677 -0.25382,-2.11285 0.94514,-0.94514 1.35203,-0.83574 1.86518,0.50149 0.83555,2.17742 0.25075,2.76221 -1.61136,1.61136 z"
         id="path3099"
         inkscape:connector-curvature="0"
         sodipodi:nodetypes="sssssscssscsssssssssscsscsscsscssscsscssssssssscsssssscssssscsssssccsssssssssssssscssscssscsssscscsssssccscscscssssscsssscccsssssssscssscssscsscsscssssccsscscccsscsssssssssssssscssscsscscscsssssscccscscscccsssssssssscccccssss"
         inkscape:export-filename="/home/pascal/Desktop/sonos_traced.png"
         inkscape:export-xdpi="351.61841"
         inkscape:export-ydpi="351.61841" />
      <path
         style="fill:#838383"
         d="m 517.01873,706.94845 c -8.67949,-0.4863 -19.92949,-1.50453 -25,-2.26272 -8.78769,-1.31403 -8.11941,-1.34762 14.28089,-0.71785 12.925,0.36338 32.275,0.5937 43,0.51181 20.99707,-0.1603 22.4773,0.83399 3.84054,2.57975 -12.46759,1.16787 -13.34478,1.16517 -36.12143,-0.11099 z m -2.21911,-17.45398 c -8.25,-0.74433 -16.75494,-1.69897 -18.89986,-2.12143 l -3.89986,-0.76812 3.39986,-1.67444 c 1.86992,-0.92094 4.17977,-1.91108 5.133,-2.20032 1.0657,-0.32336 1.50588,-1.11812 1.14301,-2.06374 -0.58542,-1.52557 -3.48493,-2.22679 -3.25773,-0.78785 0.31591,2.00075 -0.32382,2.16152 -2.61842,0.65804 -3.65161,-2.39262 -3.10097,-3.063 2.44865,-2.98108 5.87413,0.0867 8.45835,-1.67765 5.56066,-3.79649 -1.83066,-1.33861 -1.82611,-1.39515 0.16287,-2.02642 1.12534,-0.35717 2.72821,-0.38764 3.56194,-0.0677 1.10996,0.42593 1.51588,-0.10026 1.51588,-1.96501 0,-2.24813 -0.30775,-2.47008 -2.625,-1.89315 -2.4632,0.61327 -2.53369,0.53546 -1.14369,-1.26232 2.95329,-3.81966 9.31499,-9.35078 10.15665,-8.83061 0.47412,0.29303 0.86204,-0.39378 0.86204,-1.52624 0,-1.44522 -0.67073,-2.08255 -2.25,-2.13797 -1.2375,-0.0434 -1.6875,-0.30592 -1,-0.58333 0.6875,-0.27741 1.25,-1.14189 1.25,-1.92105 0,-0.77917 0.675,-1.41667 1.5,-1.41667 0.83333,0 1.5,-0.88889 1.5,-2 0,-1.1 -0.40122,-2 -0.89159,-2 -0.49038,0 -1.19372,-1.20375 -1.56298,-2.67501 -0.47828,-1.90561 -0.22183,-2.92658 0.89159,-3.54969 0.85964,-0.48107 1.56298,-1.52732 1.56298,-2.32499 0,-0.79767 0.41018,-1.45031 0.91152,-1.45031 1.12862,0 0.86143,-1.82974 -0.67443,-4.61852 -1.42555,-2.58848 -0.66077,-3.52592 2.27532,-2.78901 3.10222,0.77861 3.99908,-2.79194 1.14845,-4.57219 -1.49482,-0.93353 -2.17528,-0.97703 -2.44878,-0.15652 -0.20831,0.62493 -1.02006,1.13624 -1.80389,1.13624 -1.15471,0 -1.19775,-0.3641 -0.22683,-1.9188 0.94349,-1.51076 0.91925,-2.25505 -0.11397,-3.5 -1.11326,-1.34139 -1.04094,-1.5812 0.47683,-1.5812 0.98401,0 1.505,-0.28411 1.15775,-0.63136 -0.34725,-0.34725 -0.004,-1.52684 0.76246,-2.62132 0.97398,-1.39056 1.12226,-2.70421 0.49226,-4.36123 -0.83513,-2.19656 -0.61341,-2.41735 3.00915,-2.99662 4.2778,-0.68405 5.73675,-2.56149 3.45931,-4.45159 -1.17564,-0.9757 -1.83932,-0.76636 -3.44691,1.08721 -2.67797,3.08772 -3.80912,1.65148 -1.61914,-2.05586 0.97193,-1.64533 1.28289,-2.96923 0.69744,-2.96923 -0.5811,0 -1.05654,-0.48214 -1.05654,-1.07143 0,-0.58928 -0.74943,-1.82086 -1.66541,-2.73683 -1.55387,-1.55388 -1.45283,-1.72637 1.50867,-2.57572 2.47164,-0.70886 3.57739,-0.54531 4.99656,0.73902 1.00236,0.90713 2.09246,1.37935 2.42243,1.04938 0.89692,-0.89692 -0.33262,-3.47896 -1.35558,-2.84674 -0.48607,0.30041 -0.65288,-0.0555 -0.37069,-0.79085 0.28219,-0.73538 -0.43718,-2.35703 -1.59859,-3.60366 -1.39252,-1.49469 -1.858,-2.84498 -1.36681,-3.96489 0.40967,-0.93405 0.65416,-2.26078 0.5433,-2.94828 -0.11085,-0.6875 0.74473,-1.25 1.9013,-1.25 1.15657,0 1.85743,-0.39711 1.55746,-0.88246 -0.29996,-0.48536 0.34848,-2.01884 1.44099,-3.40773 2.45076,-3.11565 2.52974,-4.69993 0.23637,-4.74161 -1.56274,-0.0284 -1.53652,-0.19313 0.24513,-1.53949 1.71212,-1.29382 1.78305,-1.64244 0.5,-2.45769 -0.82232,-0.52251 -2.05378,-0.74534 -2.73657,-0.49518 -1.42277,0.52126 -1.51161,-7.20141 -0.0929,-8.07821 1.53955,-0.95149 0.85421,-2.25471 -1.41563,-2.6919 l -2.25,-0.43337 2.27305,-0.13618 c 2.17524,-0.13032 2.20436,-0.24103 0.67667,-2.57258 -1.5407,-2.35139 -1.4934,-2.48965 1.35576,-3.96301 4.59181,-2.37452 5.55367,-6.11873 1.94452,-7.56943 -2.16277,-0.86932 -2.14338,-0.90685 0.5,-0.96777 1.5125,-0.0349 2.75,-0.53995 2.75,-1.12241 0,-0.58246 -0.4801,-0.7623 -1.06688,-0.39965 -0.58679,0.36266 -0.98347,0.0517 -0.88152,-0.69098 0.38758,-2.82342 -0.12206,-3.72213 -2.3016,-4.05875 -2.6984,-0.41675 16.53066,-2.79397 22.53584,-2.78602 5.61352,0.007 11.94459,1.81257 11.10749,3.16701 -0.36182,0.58545 -0.81716,9.22362 -1.01186,19.19593 -0.19469,9.97231 -0.36675,18.58148 -0.38235,19.13148 -0.0156,0.55 0.21769,4.15 0.51842,8 0.30073,3.85 0.52194,7.675 0.49158,8.5 -0.10925,2.96852 -0.22209,15.59317 -0.17877,20 0.0243,2.475 -0.005,5.85 -0.0661,7.5 -0.0607,1.65 0.16272,4.2375 0.49648,5.75 0.35498,1.60867 0.18064,2.75 -0.42008,2.75 -0.68466,0 -0.75842,2.74953 -0.22131,8.25 0.44308,4.5375 0.70328,13.34462 0.57823,19.57137 -0.12506,6.22675 0.10329,11.85175 0.50745,12.5 0.40415,0.64825 0.80104,5.00363 0.88196,9.67863 0.0809,4.675 0.26026,8.95 0.39851,9.5 0.82931,3.29923 -0.18683,5.37454 -3.1347,6.40217 -4.12681,1.43862 -26.37768,1.1755 -45.35078,-0.53627 z m 1.5,-28.43922 c 0,-2.56265 -3.30983,-2.27193 -3.81184,0.3348 -0.2311,1.2 0.30742,1.73852 1.73852,1.73852 1.43109,0 2.07332,-0.64223 2.07332,-2.07332 z m 14.5,-108.92668 c 0.33992,-0.55 0.14148,-1 -0.44098,-1 -0.58246,0 -1.05902,0.45 -1.05902,1 0,0.55 0.19844,1 0.44098,1 0.24254,0 0.7191,-0.45 1.05902,-1 z m -68.5,133.22005 c -1.375,-0.15398 -3.44829,-0.48394 -4.60731,-0.73324 l -2.10731,-0.45329 0.10731,-76.68276 c 0.0702,-50.14864 0.45333,-76.79271 1.10731,-77.0005 3.51407,-1.11658 4.1701,4.71228 4.88458,43.39974 0.0635,3.4375 0.34042,6.25005 0.61542,6.25012 0.77387,1.8e-4 0.37669,26.58136 -0.41636,27.86454 -0.38592,0.62444 -0.24607,1.13534 0.31078,1.13534 0.55685,0 0.97706,1.9125 0.93381,4.25 -0.0433,2.3375 0.14223,6.05 0.41218,8.25 0.26995,2.2 0.14887,4.91667 -0.26908,6.03706 -0.44072,1.18141 -0.16727,3.70164 0.651,6 0.77599,2.17961 1.31378,5.8608 1.19508,8.18041 -0.11869,2.31961 0.083,4.51627 0.44821,4.88148 0.36521,0.36521 0.18338,1.56208 -0.40405,2.65971 -0.78477,1.46636 -0.74706,2.19408 0.1422,2.74367 0.71959,0.44473 0.93684,1.60944 0.53585,2.87282 -0.37091,1.16867 -0.29616,2.12485 0.16613,2.12485 0.46229,0 0.86606,2.25 0.89728,5 0.0312,2.75 -0.31643,5 -0.77254,5 -1.31887,0 -0.4652,6.92152 0.91951,7.45534 1.57263,0.60627 1.63726,3.24891 0.0921,3.76397 -2.0502,0.6834 -0.0758,5.60377 2.40959,6.00483 2.96486,0.47842 -3.69952,1.39368 -7.25165,0.99591 z"
         id="path3097"
         inkscape:connector-curvature="0"
         inkscape:export-filename="/home/pascal/Desktop/sonos_traced.png"
         inkscape:export-xdpi="351.61841"
         inkscape:export-ydpi="351.61841" />
      <path
         style="fill:#797979"
         d="m 504.36527,705.93359 c -6.28889,-0.50158 -12.13889,-1.367 -13,-1.92315 -1.11144,-0.71783 0.03,-0.85155 3.93435,-0.46092 3.025,0.30264 19.45,0.87132 36.5,1.26372 18.62334,0.42861 29.40301,1.01022 27,1.45676 -5.41518,1.00629 -40.30288,0.79068 -54.43435,-0.33641 z m 59.74685,-1.48813 c 0.72187,-0.28887 1.58437,-0.25335 1.91667,0.0789 0.33229,0.33229 -0.25834,0.56864 -1.3125,0.52522 -1.16495,-0.048 -1.4019,-0.28494 -0.60417,-0.60416 z m -30.3125,-14.00845 c -7.75947,-0.51378 -9.5,-1.12342 -9.5,-3.32749 0,-1.08952 -0.40149,-1.98095 -0.8922,-1.98095 -0.49071,0 -0.0553,-1.64156 0.96761,-3.6479 1.02289,-2.00635 1.62282,-4.03135 1.33318,-4.5 -0.28964,-0.46866 0.17493,-0.8521 1.03239,-0.8521 2.04794,0 1.97576,-0.97479 -0.18941,-2.558 -0.99111,-0.72471 -1.36495,-1.63875 -0.86309,-2.11024 0.48693,-0.45747 1.08234,-0.28091 1.32313,0.39235 0.32662,0.91326 1.05367,0.82057 2.86309,-0.36501 3.28323,-2.15126 3.05145,-3.98387 -0.59611,-4.71338 -2.7075,-0.5415 -2.8945,-0.80751 -1.79985,-2.56032 0.67186,-1.07582 1.54089,-1.75868 1.93117,-1.51747 1.36372,0.84282 3.75919,-0.74549 3.22476,-2.13818 -0.29647,-0.7726 -0.0665,-2.76036 0.51112,-4.41724 0.84739,-2.43082 0.77536,-3.01251 -0.37306,-3.01251 -1.09452,0 -1.20955,-0.56201 -0.49807,-2.43336 0.65011,-1.70991 0.56842,-2.5618 -0.27475,-2.86537 -0.76352,-0.27489 -0.33304,-1.20221 1.18367,-2.54978 1.93086,-1.71555 2.27709,-2.77398 1.82292,-5.57271 -0.38136,-2.35004 -0.10033,-3.83696 0.87875,-4.64953 1.10481,-0.91691 1.17096,-1.51807 0.28458,-2.58609 -0.63516,-0.76532 -0.88154,-1.66478 -0.54751,-1.99881 0.33402,-0.33402 0.19818,-1.37178 -0.30187,-2.30613 -0.59343,-1.10885 -0.44904,-2.58573 0.41579,-4.25269 1.40283,-2.70395 0.54869,-5.51229 -1.32444,-4.35463 -0.61149,0.37792 -1.1118,0.21058 -1.1118,-0.37188 0,-0.58246 0.81086,-1.05902 1.80192,-1.05902 1.48333,0 1.76799,-0.75142 1.61005,-4.25 -0.10552,-2.3375 0.22445,-5.0375 0.73327,-6 0.67732,-1.28124 0.54295,-1.75 -0.50165,-1.75 -2.14942,0 -3.14564,-5.13953 -1.20657,-6.2247 2.02329,-1.13228 1.9784,-2.65878 -0.14726,-5.00761 -1.15847,-1.2801 -1.35712,-2.11206 -0.61573,-2.57874 0.60197,-0.37892 1.11689,-2.49407 1.14426,-4.70033 0.0274,-2.20626 0.51226,-5.22783 1.07753,-6.7146 0.56527,-1.48677 0.6418,-2.94175 0.17008,-3.23329 -0.47172,-0.29154 -0.50192,-2.10747 -0.0671,-4.0354 0.43482,-1.92793 0.55787,-3.50533 0.27344,-3.50533 -0.28442,0 0.0431,-0.675 0.72776,-1.5 0.95325,-1.1486 0.97117,-1.82981 0.0765,-2.90783 -0.64262,-0.7743 -1.06046,-3.23705 -0.92855,-5.47276 0.13192,-2.23572 -0.0654,-4.3702 -0.43851,-4.7433 -0.37309,-0.37309 0.0126,-1.18356 0.85699,-1.80102 2.14185,-1.56616 2.88249,-15.46559 0.86534,-16.23964 -1.04116,-0.39954 -1.13714,-1.01746 -0.37827,-2.43541 0.55928,-1.04502 0.66353,-1.90693 0.23168,-1.91535 -0.43185,-0.008 -0.11018,-0.45153 0.71482,-0.98469 1.8556,-1.19918 16.99831,-1.28726 18.85676,-0.10969 0.84832,0.53752 0.97674,1.09456 0.34269,1.48643 -0.58384,0.36083 -0.94734,4.44473 -0.85677,9.62575 0.0865,4.94946 -0.23186,9.12841 -0.70753,9.28655 -0.47567,0.15814 -0.34647,2.78457 0.28712,5.83652 0.68563,3.30268 0.80991,6.5257 0.30701,7.96172 -0.46472,1.32699 -0.71187,3.53772 -0.54922,4.91272 0.16266,1.375 0.37649,8.5019 0.4752,15.83755 0.14219,10.56722 -0.11493,13.52389 -1.23789,14.23468 -0.91443,0.5788 -0.99227,0.90258 -0.21939,0.91246 0.8984,0.0115 0.93463,0.77075 0.14489,3.0362 -0.69564,1.99552 -0.71798,3.43808 -0.0658,4.25 0.54299,0.67601 1.08405,3.92911 1.20236,7.22911 0.31602,8.81496 0.21537,9.93508 -0.92698,10.31586 -0.70911,0.23637 -0.69882,0.97633 0.0326,2.34295 0.58796,1.09861 0.80791,2.67792 0.48877,3.50957 -0.31914,0.83166 -0.29009,1.98159 0.0645,2.55541 1.2263,1.98419 1.0492,7.79067 -0.27104,8.88637 -0.9732,0.80768 -1.05046,1.61328 -0.29086,3.03262 0.56891,1.06302 0.74728,2.83736 0.39637,3.94298 -0.35091,1.10562 -0.0847,2.67695 0.59162,3.49184 0.95526,1.15101 0.96599,2.06029 0.0481,4.07485 -0.95065,2.08645 -0.89442,3.03142 0.28774,4.83563 1.0747,1.6402 1.17183,2.53986 0.36165,3.35004 -0.81017,0.81017 -0.79986,1.78311 0.0384,3.6229 0.63032,1.38341 0.88277,3.20134 0.561,4.03987 -0.32177,0.83852 -0.0886,2.12275 0.51816,2.85385 0.60676,0.73111 0.7696,1.66329 0.36187,2.07153 -0.40772,0.40824 -0.74132,2.83531 -0.74132,5.39348 0,4.35775 -0.18928,4.69199 -3,5.29742 -3.12207,0.67249 -13.38463,0.76172 -22,0.19127 z m 5,-86.30844 c 0.33992,-0.55 0.14148,-1 -0.44098,-1 -0.58246,0 -1.05902,0.45 -1.05902,1 0,0.55 0.19844,1 0.44098,1 0.24254,0 0.7191,-0.45 1.05902,-1 z m -81.78922,79.25 c -0.65823,-1.21222 -0.0415,-17.63257 0.7567,-20.14754 1.46712,-4.62248 2.72356,-0.22854 2.94304,10.29218 0.19887,9.53341 0.0437,10.60536 -1.53563,10.60536 -0.96627,0 -1.94012,-0.3375 -2.16411,-0.75 z m 71.08922,-23.45 c 0.93333,-0.93333 1.46667,-0.93333 2.4,0 0.93333,0.93333 0.66667,1.2 -1.2,1.2 -1.86667,0 -2.13333,-0.26667 -1.2,-1.2 z m -70.78469,-10.05 c -0.008,-1.5125 0.43469,-2.75 0.98469,-2.75 1.26441,0 1.26441,2.04347 0,4 -0.75538,1.16887 -0.97276,0.89294 -0.98469,-1.25 z m -0.0153,-14.88211 c 0,-3.83104 0.13427,-4.06652 1.36165,-2.38798 1.3798,1.88699 1.12543,5.10103 -0.48236,6.09469 -0.48361,0.29889 -0.87929,-1.36913 -0.87929,-3.70671 z m 0.15789,-11.86789 c 0,-1.375 0.22698,-1.9375 0.50439,-1.25 0.27741,0.6875 0.27741,1.8125 0,2.5 -0.27741,0.6875 -0.50439,0.125 -0.50439,-1.25 z m -0.15789,-4.88197 c 0,-1.1 0.45,-2.27811 1,-2.61803 0.55,-0.33992 1,0.28197 1,1.38197 0,1.1 -0.45,2.27811 -1,2.61803 -0.55,0.33992 -1,-0.28197 -1,-1.38197 z m 0.14663,-11.61803 c -0.009,-4.18501 0.15912,-4.64778 1.03409,-2.83913 0.72253,1.49352 0.726,3.03768 0.0113,5 -0.95392,2.61902 -1.03497,2.45149 -1.04536,-2.16087 z m -0.59358,-11.14464 c -0.36646,-1.4601 -0.19106,-3.11735 0.3916,-3.7 0.74047,-0.74048 1.05535,-0.42336 1.05535,1.06285 0,1.16502 0.27314,2.83002 0.60699,3.7 0.33384,0.86999 0.15763,1.58179 -0.39159,1.58179 -0.54922,0 -1.29728,-1.19009 -1.66235,-2.64464 z m 0.62872,-14.55297 c -0.2822,-3.70345 0.24837,-3.50499 1.19661,0.44761 0.36285,1.5125 0.29687,2.75 -0.14662,2.75 -0.44349,0 -0.91599,-1.43892 -1.04999,-3.19761 z"
         id="path3095"
         inkscape:connector-curvature="0"
         inkscape:export-filename="/home/pascal/Desktop/sonos_traced.png"
         inkscape:export-xdpi="351.61841"
         inkscape:export-ydpi="351.61841" />
    </g>
  </g>
</svg>
